<svg id="图层_1" data-name="图层 1" xmlns="http://www.w3.org/2000/svg" viewBox="0 0 235.09 211.45"><title>makers-union</title><path d="M53.16,255.73l-24.25-14,57-98.73a74,74,0,1,1,128.18,74l-7,12.12-24.25-14,7-12.12a46,46,0,0,0-79.68-46Z" transform="translate(-28.91 -44.27)"/><path d="M150.12,254a74.07,74.07,0,0,1-64.21-37l-7-12.12,24.25-14,7,12.12a46,46,0,1,0,79.68-46l-57-98.73,24.25-14,57,98.73a74,74,0,0,1-64,111Z" transform="translate(-28.91 -44.27)"/><path d="M264,254H150a74,74,0,0,1,0-148h14v28H150a46,46,0,0,0,0,92H264Z" transform="translate(-28.91 -44.27)"/></svg>